
<svg width="96px" height="96px" viewBox="0 0 96 96" version="1.1" xmlns="http://www.w3.org/2000/svg" xmlns:xlink="http://www.w3.org/1999/xlink">
    <!-- Generator: Sketch 50.2 (55047) - http://www.bohemiancoding.com/sketch -->
    <desc>Created with Sketch.</desc>
    <defs></defs>
    <g id="Page-1" stroke="none" stroke-width="1" fill="none" fill-rule="evenodd">
        <g id="Desktop" transform="translate(-55.000000, -622.000000)">
            <rect id="Rectangle-Copy-11" fill="#A0F0ED" x="55" y="622" width="96" height="96" rx="8"></rect>
            <rect id="Rectangle-4-Copy-12" fill="#64D5CA" x="72" y="699" width="60" height="7" rx="3.5"></rect>
            <path d="M111.819805,692 L101.606602,702.213203 L91.3933983,692 L77,692 C74.790861,692 73,690.209139 73,688 L73,642 C73,639.790861 74.790861,638 77,638 L129,638 C131.209139,638 133,639.790861 133,642 L133,688 C133,690.209139 131.209139,692 129,692 L111.819805,692 Z" id="Combined-Shape-Copy-9" fill="#38A89D"></path>
            <path d="M114,666 L114,674 C114,676.209139 112.209139,678 110,678 L106,678 L106,683.333333 L103.333333,683.333333 L103.333333,678 L100.666667,678 L100.666667,683.333333 L98,683.333333 L98,678 L90,678 L90,672.666667 L98,672.666667 L98,667.333333 L94,667.333333 C91.790861,667.333333 90,665.542472 90,663.333333 L90,655.333333 C90,653.124194 91.790861,651.333333 94,651.333333 L98,651.333333 L98,646 L100.666667,646 L100.666667,651.333333 L103.333333,651.333333 L103.333333,646 L106,646 L106,651.333333 L114,651.333333 L114,656.666667 L106,656.666667 L106,662 L110,662 C112.209139,662 114,663.790861 114,666 Z M108.666667,667.333333 L106,667.333333 L106,672.666667 L108.666667,672.666667 L108.666667,667.333333 Z M100.666667,672.666667 L103.333333,672.666667 L103.333333,667.333333 L100.666667,667.333333 L100.666667,672.666667 Z M103.333333,662 L103.333333,656.666667 L100.666667,656.666667 L100.666667,662 L103.333333,662 Z M98,662 L98,656.666667 L95.3333333,656.666667 L95.3333333,662 L98,662 Z" id="Combined-Shape-Copy-10" fill="#20504F"></path>
        </g>
    </g>
</svg>